<svg width="20" height="20" viewBox="0 0 20 20" fill="none" xmlns="http://www.w3.org/2000/svg">
    <path
        d="M3.33334 16.6667C2.87501 16.6667 2.48251 16.5034 2.15584 16.1767C1.82917 15.85 1.66612 15.4578 1.66667 15V5.00004C1.66667 4.54171 1.83001 4.14921 2.15667 3.82254C2.48334 3.49588 2.87556 3.33282 3.33334 3.33338H16.6667C17.125 3.33338 17.5175 3.49671 17.8442 3.82338C18.1708 4.15004 18.3339 4.54226 18.3333 5.00004V15C18.3333 15.4584 18.17 15.8509 17.8433 16.1775C17.5167 16.5042 17.1245 16.6673 16.6667 16.6667H3.33334ZM10 10.6875C10.0695 10.6875 10.1425 10.677 10.2192 10.6559C10.2958 10.6348 10.3686 10.6037 10.4375 10.5625L16.3333 6.87504C16.4445 6.8056 16.5278 6.71865 16.5833 6.61421C16.6389 6.50976 16.6667 6.39532 16.6667 6.27088C16.6667 5.9931 16.5486 5.78476 16.3125 5.64588C16.0764 5.50699 15.8333 5.51393 15.5833 5.66671L10 9.16671L4.41667 5.66671C4.16667 5.51393 3.92362 5.5106 3.68751 5.65671C3.4514 5.80282 3.33334 6.00754 3.33334 6.27088C3.33334 6.40976 3.36112 6.53143 3.41667 6.63588C3.47223 6.74032 3.55556 6.82004 3.66667 6.87504L9.56251 10.5625C9.63195 10.6042 9.70501 10.6356 9.78167 10.6567C9.85834 10.6778 9.93112 10.6881 10 10.6875Z"
        fill="#0E0E0E" />
</svg>