<svg width="418" height="115" viewBox="0 0 418 115" fill="none" xmlns="http://www.w3.org/2000/svg">
<path d="M347.621 15.0002C346.182 17.182 345.827 19.8621 346.383 22.9572C347.046 26.6481 349.052 30.8075 351.951 34.7237C357.75 42.5563 367.11 49.3271 375.437 50.3536L376.019 50.4273L376.394 50.8735L407.036 87.6439C410.09 88.3694 412.062 87.9177 413.088 86.9081C414.121 85.8909 414.597 83.9265 413.832 80.8093L347.621 15.0002ZM406.814 15.3629L389.691 32.3851C387.797 34.2675 387.78 36.3387 388.758 38.6018L389.163 39.5384L388.423 40.2444L382.672 45.6961L387.343 50.3388L392.803 44.6074L393.513 43.8622L394.455 44.2692C396.848 45.2944 399.118 45.2524 400.876 43.5044L418 26.4821L415.776 24.2709L404.639 35.3365L402.558 33.2629L413.689 22.1977L411.317 19.8389L400.186 30.9044L398.1 28.8307L409.231 17.7654L406.814 15.3629ZM374.613 53.3395L345.352 81.0937C344.63 84.0667 345.093 85.9238 346.067 86.8836C347.042 87.8435 348.928 88.2842 351.882 87.5749L379.22 58.8697L374.613 53.3395Z" fill="white"/>
<path d="M15.84 96.352C11.936 96.352 8.992 95.712 7.008 94.432C5.024 93.152 4 91.04 3.936 88.096C3.936 87.456 4.288 87.136 4.992 87.136C5.568 87.136 6.432 87.296 7.584 87.616C8.8 87.872 11.072 88 14.4 88C20.032 88 25.216 87.424 29.952 86.272C34.688 85.056 38.784 83.456 42.24 81.472C45.76 79.424 48.48 77.152 50.4 74.656C52.32 72.096 53.28 69.44 53.28 66.688C53.28 64.192 52.512 62.208 50.976 60.736C49.504 59.2 47.52 58.048 45.024 57.28C42.592 56.448 39.904 55.904 36.96 55.648C34.08 55.392 31.232 55.264 28.416 55.264C27.2 55.264 25.984 55.296 24.768 55.36C23.552 55.36 22.4 55.36 21.312 55.36C19.904 60.224 18.528 65.248 17.184 70.432C15.84 75.616 14.432 80.704 12.96 85.696C11.04 85.696 9.376 85.184 7.968 84.16C6.56 83.136 5.856 81.888 5.856 80.416C5.856 79.84 5.952 79.104 6.144 78.208C6.4 77.248 6.752 76.128 7.2 74.848C7.584 73.632 8.224 71.616 9.12 68.8C10.08 65.984 11.2 62.656 12.48 58.816C13.76 54.976 15.168 50.944 16.704 46.72C18.304 42.432 19.936 38.24 21.6 34.144C23.328 30.048 25.024 26.368 26.688 23.104C24.128 23.68 22.016 24.352 20.352 25.12C18.688 25.888 17.376 26.56 16.416 27.136C15.456 27.712 14.72 28 14.208 28C13.824 28 13.312 27.776 12.672 27.328C12.096 26.88 11.552 26.368 11.04 25.792C10.592 25.216 10.368 24.704 10.368 24.256C13.824 22.848 17.408 21.6 21.12 20.512C24.832 19.424 29.312 18.88 34.56 18.88C36.864 18.88 39.392 19.072 42.144 19.456C44.896 19.776 47.52 20.48 50.016 21.568C52.512 22.592 54.56 24.16 56.16 26.272C57.824 28.32 58.656 31.072 58.656 34.528C58.656 37.28 58.048 39.68 56.832 41.728C55.68 43.712 54.112 45.44 52.128 46.912C50.144 48.32 47.968 49.504 45.6 50.464C43.232 51.36 40.896 52.096 38.592 52.672C42.56 53.184 45.856 54.016 48.48 55.168C51.168 56.256 53.28 57.536 54.816 59.008C56.416 60.48 57.536 62.016 58.176 63.616C58.88 65.152 59.232 66.656 59.232 68.128C59.232 71.904 58.24 75.296 56.256 78.304C54.272 81.312 51.648 83.936 48.384 86.176C45.184 88.416 41.632 90.272 37.728 91.744C33.888 93.28 30.048 94.432 26.208 95.2C22.368 95.968 18.912 96.352 15.84 96.352ZM22.272 51.712C25.856 51.584 29.376 51.168 32.832 50.464C36.288 49.76 39.392 48.736 42.144 47.392C44.96 45.984 47.2 44.192 48.864 42.016C50.528 39.776 51.36 37.024 51.36 33.76C51.36 30.688 50.528 28.32 48.864 26.656C47.2 24.992 45.024 23.84 42.336 23.2C39.648 22.56 36.768 22.24 33.696 22.24C33.632 22.24 33.568 22.24 33.504 22.24C33.44 22.24 33.376 22.24 33.312 22.24C31.136 26.528 29.152 31.2 27.36 36.256C25.568 41.248 23.872 46.4 22.272 51.712ZM154.763 96.352C152.843 96.352 151.019 95.84 149.291 94.816C147.627 93.792 146.795 92.48 146.795 90.88C146.795 90.048 146.923 89.152 147.179 88.192C147.499 87.232 147.787 86.336 148.043 85.504C150.027 79.424 151.883 73.76 153.611 68.512C155.339 63.2 157.067 58.112 158.795 53.248C160.587 48.32 162.443 43.392 164.363 38.464C166.347 33.536 168.555 28.384 170.987 23.008C168.555 23.52 166.475 24.192 164.747 25.024C163.019 25.792 161.611 26.496 160.523 27.136C159.435 27.712 158.635 28 158.123 28C157.803 28 157.323 27.776 156.683 27.328C156.107 26.88 155.595 26.368 155.147 25.792C154.699 25.216 154.475 24.704 154.475 24.256C156.267 23.488 158.347 22.688 160.715 21.856C163.147 21.024 165.771 20.32 168.587 19.744C171.403 19.168 174.219 18.88 177.035 18.88C180.043 18.88 183.115 19.296 186.251 20.128C189.387 20.896 192.267 22.08 194.891 23.68C197.579 25.216 199.723 27.168 201.323 29.536C202.987 31.84 203.819 34.56 203.819 37.696C203.819 41.088 203.051 44 201.515 46.432C199.979 48.864 197.931 50.912 195.371 52.576C192.875 54.24 190.155 55.584 187.211 56.608C184.267 57.632 181.323 58.4 178.379 58.912C175.499 59.424 172.907 59.776 170.603 59.968C168.299 60.16 166.571 60.256 165.419 60.256H164.843C163.051 66.592 161.291 72.928 159.563 79.264C157.835 85.536 156.235 91.232 154.763 96.352ZM165.707 57.28C169.291 57.024 172.875 56.416 176.459 55.456C180.043 54.496 183.275 53.184 186.155 51.52C189.099 49.792 191.435 47.648 193.163 45.088C194.955 42.528 195.851 39.552 195.851 36.16C195.851 32.96 194.987 30.368 193.259 28.384C191.595 26.4 189.419 24.896 186.731 23.872C184.107 22.848 181.323 22.304 178.379 22.24C176.075 26.72 173.867 32.032 171.755 38.176C169.643 44.256 167.627 50.624 165.707 57.28Z" fill="#FF4747"/>
<path d="M68.7735 91.072C65.8935 91.072 63.9095 90.112 62.8215 88.192C61.7975 86.336 61.2855 84.288 61.2855 82.048C61.2855 80 61.6055 77.92 62.2455 75.808C62.8855 73.632 63.7495 71.616 64.8375 69.76C65.9895 67.904 67.2375 66.432 68.5815 65.344C69.9895 64.192 71.3975 63.616 72.8055 63.616C73.2535 63.616 73.7655 63.712 74.3415 63.904C74.9815 64.032 75.4295 64.256 75.6855 64.576C74.9175 65.536 74.1175 66.72 73.2855 68.128C72.5175 69.536 71.7815 71.04 71.0775 72.64C70.4375 74.176 69.9255 75.744 69.5415 77.344C69.1575 78.944 68.9655 80.416 68.9655 81.76C68.9655 83.04 69.1895 84.096 69.6375 84.928C70.1495 85.76 71.0135 86.176 72.2295 86.176C73.4455 86.176 74.8855 85.504 76.5495 84.16C78.2775 82.752 79.9095 81.152 81.4455 79.36C79.3975 77.504 77.9255 75.488 77.0295 73.312C76.1335 71.072 75.6855 68.384 75.6855 65.248C75.6855 63.904 76.0055 62.368 76.6455 60.64C77.3495 58.912 78.4375 57.408 79.9095 56.128C81.4455 54.848 83.4935 54.208 86.0535 54.208C88.8055 54.208 90.7255 54.976 91.8135 56.512C92.9655 58.048 93.5415 59.872 93.5415 61.984C93.5415 64.352 92.9015 67.008 91.6215 69.952C90.4055 72.896 88.9335 75.68 87.2055 78.304C87.9735 78.688 88.8695 78.88 89.8935 78.88C90.8535 78.88 92.0055 78.656 93.3495 78.208C94.6935 77.76 96.0055 77.024 97.2855 76C98.5655 74.912 99.5895 73.472 100.358 71.68L102.086 72.928C100.678 76.192 98.7895 78.592 96.4215 80.128C94.1175 81.6 91.8455 82.336 89.6055 82.336C88.7735 82.336 87.9415 82.272 87.1095 82.144C86.2775 81.952 85.5095 81.728 84.8055 81.472C82.6295 84.032 80.1335 86.272 77.3175 88.192C74.5015 90.112 71.6535 91.072 68.7735 91.072ZM83.9415 76.288C85.4775 74.048 86.7895 71.648 87.8775 69.088C88.9655 66.528 89.5095 64.16 89.5095 61.984C89.5095 60.512 89.2855 59.456 88.8375 58.816C88.3895 58.112 87.7175 57.76 86.8215 57.76C85.6055 57.76 84.3575 58.624 83.0775 60.352C81.7975 62.08 81.1575 64.256 81.1575 66.88C81.1575 68.224 81.3815 69.856 81.8295 71.776C82.3415 73.696 83.0455 75.2 83.9415 76.288ZM130.508 89.92C128.012 89.92 126.092 89.28 124.748 88C123.468 86.784 122.828 85.216 122.828 83.296C122.828 82.016 123.052 80.672 123.5 79.264C123.948 77.792 124.396 76.32 124.844 74.848C125.292 73.376 125.516 71.968 125.516 70.624C125.516 69.216 125.164 68.256 124.46 67.744C123.82 67.168 123.052 66.88 122.156 66.88C120.236 66.88 118.252 67.68 116.204 69.28C114.22 70.816 112.268 72.768 110.348 75.136C108.492 77.504 106.732 79.968 105.068 82.528C103.404 85.088 101.964 87.392 100.748 89.44C99.5323 89.44 98.3803 89.216 97.2922 88.768C96.2042 88.384 95.2762 87.68 94.5082 86.656C94.5722 86.336 94.9562 85.376 95.6602 83.776C96.3002 82.112 97.0362 80.16 97.8682 77.92C98.7003 75.616 99.4363 73.216 100.076 70.72C100.716 68.224 101.036 65.952 101.036 63.904C101.484 63.392 102.156 62.88 103.052 62.368C104.012 61.856 105.004 61.6 106.028 61.6C108.268 61.6 109.388 62.56 109.388 64.48C109.388 65.248 109.228 66.4 108.908 67.936C108.652 69.408 108.268 71.104 107.756 73.024C109.42 70.784 111.244 68.672 113.228 66.688C115.212 64.704 117.26 63.104 119.372 61.888C121.548 60.608 123.724 59.968 125.9 59.968C128.652 59.968 130.668 60.896 131.948 62.752C133.292 64.608 133.964 66.656 133.964 68.896C133.964 70.816 133.644 72.608 133.004 74.272C132.364 75.936 131.724 77.504 131.084 78.976C130.508 80.448 130.22 81.888 130.22 83.296C130.22 84.32 130.444 85.056 130.892 85.504C131.404 85.888 131.948 86.08 132.524 86.08C134.06 86.08 135.66 85.344 137.324 83.872C138.988 82.4 140.556 80.544 142.028 78.304C143.564 76 144.908 73.696 146.06 71.392L147.692 72.736C146.348 75.872 144.812 78.752 143.084 81.376C141.42 83.936 139.532 86.016 137.42 87.616C135.372 89.152 133.068 89.92 130.508 89.92ZM205.412 90.88C202.404 90.88 200.292 89.888 199.076 87.904C197.924 85.856 197.348 83.456 197.348 80.704C197.348 77.568 197.924 73.888 199.076 69.664C200.228 65.44 201.732 61.024 203.588 56.416C205.508 51.744 207.588 47.2 209.828 42.784C212.132 38.304 214.436 34.272 216.74 30.688C219.044 27.104 221.156 24.256 223.076 22.144C225.06 19.968 226.66 18.88 227.876 18.88C228.708 18.88 229.412 19.328 229.988 20.224C230.564 21.056 231.012 22.08 231.332 23.296C231.716 24.448 231.908 25.536 231.908 26.56C231.908 28.288 231.46 30.56 230.564 33.376C229.732 36.128 228.516 39.168 226.916 42.496C225.38 45.824 223.524 49.248 221.348 52.768C219.236 56.224 216.868 59.52 214.244 62.656C211.684 65.792 208.932 68.512 205.988 70.816C205.732 72.416 205.476 74.016 205.22 75.616C205.028 77.152 204.932 78.56 204.932 79.84C204.932 82.144 205.316 83.84 206.084 84.928C206.852 85.952 207.844 86.464 209.06 86.464C210.66 86.464 212.292 85.728 213.956 84.256C215.684 82.72 217.316 80.8 218.852 78.496C220.452 76.128 221.828 73.696 222.98 71.2L225.284 72.448C222.532 78.144 219.46 82.656 216.068 85.984C212.676 89.248 209.124 90.88 205.412 90.88ZM207.716 64.864C209.892 62.496 211.94 59.936 213.86 57.184C215.844 54.368 217.636 51.52 219.236 48.64C220.9 45.76 222.34 42.976 223.556 40.288C224.772 37.6 225.7 35.2 226.34 33.088C227.044 30.912 227.428 29.184 227.492 27.904C227.492 27.84 227.492 27.808 227.492 27.808C227.492 27.744 227.492 27.68 227.492 27.616C226.98 27.616 226.148 28.352 224.996 29.824C223.908 31.232 222.596 33.184 221.06 35.68C219.524 38.176 217.924 41.024 216.26 44.224C214.66 47.424 213.092 50.816 211.556 54.4C210.084 57.92 208.804 61.408 207.716 64.864ZM226.064 92.512C223.952 92.512 222.128 91.808 220.591 90.4C218.991 88.992 218.191 86.88 218.191 84.064C218.191 81.824 218.703 79.392 219.727 76.768C220.751 74.144 222.16 71.552 223.952 68.992C225.744 66.432 227.792 64.128 230.096 62.08C232.4 59.968 234.864 58.272 237.488 56.992C240.112 55.712 242.736 55.072 245.359 55.072C248.112 55.072 250.448 55.776 252.368 57.184C254.288 58.592 255.248 60.448 255.248 62.752C255.248 64.48 254.64 65.728 253.424 66.496C252.208 67.264 250.768 67.488 249.104 67.168C249.232 66.592 249.328 66.016 249.392 65.44C249.52 64.864 249.584 64.256 249.584 63.616C249.584 62.336 249.328 61.184 248.816 60.16C248.304 59.136 247.216 58.624 245.552 58.624C243.76 58.624 241.936 59.232 240.08 60.448C238.224 61.664 236.432 63.264 234.704 65.248C233.04 67.168 231.536 69.312 230.192 71.68C228.848 73.984 227.792 76.256 227.023 78.496C226.256 80.736 225.872 82.752 225.872 84.544C225.872 86.592 226.608 87.616 228.08 87.616C229.552 87.616 231.184 86.912 232.976 85.504C234.768 84.032 236.56 82.208 238.352 80.032C240.208 77.856 241.968 75.648 243.632 73.408C245.296 71.104 246.736 69.152 247.952 67.552C248.144 67.232 248.4 67.072 248.72 67.072C248.976 67.136 249.456 67.296 250.16 67.552C250.928 67.744 251.632 68.064 252.272 68.512C252.912 68.96 253.232 69.536 253.232 70.24C253.232 70.88 252.944 71.712 252.368 72.736C251.856 73.696 251.216 74.784 250.448 76C249.744 77.152 249.104 78.336 248.528 79.552C248.016 80.704 247.76 81.824 247.76 82.912C247.76 83.744 247.984 84.544 248.432 85.312C248.88 86.016 249.616 86.368 250.64 86.368C252.176 86.368 254.32 85.248 257.072 83.008C259.888 80.704 262.736 76.832 265.616 71.392L267.44 73.216C265.904 76.672 264.048 79.744 261.872 82.432C259.76 85.056 257.52 87.104 255.152 88.576C252.784 90.112 250.384 90.88 247.952 90.88C245.328 90.88 243.376 90.048 242.096 88.384C240.816 86.72 240.112 84.928 239.984 83.008C239.984 82.88 239.984 82.784 239.984 82.72C239.984 82.656 239.984 82.592 239.984 82.528C237.424 85.6 235.056 88.032 232.88 89.824C230.768 91.616 228.496 92.512 226.064 92.512ZM295.696 89.92C293.2 89.92 291.28 89.28 289.936 88C288.656 86.784 288.016 85.216 288.016 83.296C288.016 82.016 288.24 80.672 288.688 79.264C289.136 77.792 289.584 76.32 290.032 74.848C290.48 73.376 290.704 71.968 290.704 70.624C290.704 69.216 290.352 68.256 289.648 67.744C289.008 67.168 288.24 66.88 287.344 66.88C285.424 66.88 283.44 67.68 281.392 69.28C279.408 70.816 277.456 72.768 275.536 75.136C273.68 77.504 271.92 79.968 270.256 82.528C268.592 85.088 267.152 87.392 265.936 89.44C264.72 89.44 263.568 89.216 262.48 88.768C261.392 88.384 260.464 87.68 259.696 86.656C259.76 86.336 260.144 85.376 260.848 83.776C261.488 82.112 262.224 80.16 263.056 77.92C263.888 75.616 264.624 73.216 265.264 70.72C265.904 68.224 266.224 65.952 266.224 63.904C266.672 63.392 267.344 62.88 268.24 62.368C269.2 61.856 270.192 61.6 271.216 61.6C273.456 61.6 274.576 62.56 274.576 64.48C274.576 65.248 274.416 66.4 274.096 67.936C273.84 69.408 273.456 71.104 272.944 73.024C274.608 70.784 276.432 68.672 278.416 66.688C280.4 64.704 282.448 63.104 284.56 61.888C286.736 60.608 288.912 59.968 291.088 59.968C293.84 59.968 295.856 60.896 297.136 62.752C298.48 64.608 299.152 66.656 299.152 68.896C299.152 70.816 298.832 72.608 298.192 74.272C297.552 75.936 296.912 77.504 296.272 78.976C295.696 80.448 295.408 81.888 295.408 83.296C295.408 84.32 295.632 85.056 296.08 85.504C296.592 85.888 297.136 86.08 297.712 86.08C299.248 86.08 300.848 85.344 302.512 83.872C304.176 82.4 305.744 80.544 307.216 78.304C308.752 76 310.096 73.696 311.248 71.392L312.88 72.736C311.536 75.872 310 78.752 308.272 81.376C306.608 83.936 304.72 86.016 302.608 87.616C300.56 89.152 298.256 89.92 295.696 89.92Z" fill="white"/>
</svg>
