<svg width="20" height="20" viewBox="0 0 20 20" fill="none" xmlns="http://www.w3.org/2000/svg">
    <path
        d="M5.5793 2.08L4.1493 0.65C1.7493 2.48 0.169297 5.3 0.0292969 8.5H2.0293C2.10013 7.23181 2.45612 5.99593 3.07077 4.88439C3.68541 3.77284 4.54286 2.81425 5.5793 2.08ZM17.9693 8.5H19.9693C19.8193 5.3 18.2393 2.48 15.8493 0.65L14.4293 2.08C15.4613 2.81787 16.3149 3.77751 16.9275 4.88846C17.5401 5.99942 17.8961 7.23347 17.9693 8.5ZM15.9993 9C15.9993 5.93 14.3593 3.36 11.4993 2.68V0.5H8.4993V2.68C5.6293 3.36 3.9993 5.92 3.9993 9V14L1.9993 16V17H17.9993V16L15.9993 14V9ZM9.9993 20C10.1393 20 10.2693 19.99 10.3993 19.96C11.0493 19.82 11.5793 19.38 11.8393 18.78C11.9393 18.54 11.9893 18.28 11.9893 18H7.9893C7.9993 19.1 8.8893 20 9.9993 20Z"
        fill="#fefc8e" />
</svg>